{
    "frames": [
        {
            "media_type": "video",
            "stream_index": 0,
            "key_frame": 0,
            "pkt_pts": 0,
            "pkt_pts_time": "0.000000",
            "pkt_dts": 0,
            "pkt_dts_time": "0.000000",
            "best_effort_timestamp": 0,
            "best_effort_timestamp_time": "0.000000",
            "pkt_duration": 1,
            "pkt_duration_time": "0.062500",
            "pkt_pos": "5686",
            "pkt_size": "7695",
            "width": 352,
            "height": 288,
            "pix_fmt": "yuv420p",
            "pict_type": "P",
            "coded_picture_number": 0,
            "display_picture_number": 0,
            "interlaced_frame": 0,
            "top_field_first": 0,
            "repeat_pict": 0
        },
        {
            "media_type": "video",
            "stream_index": 0,
            "key_frame": 0,
            "pkt_pts": 1,
            "pkt_pts_time": "0.062500",
            "pkt_dts": 1,
            "pkt_dts_time": "0.062500",
            "best_effort_timestamp": 1,
            "best_effort_timestamp_time": "0.062500",
            "pkt_duration": 1,
            "pkt_duration_time": "0.062500",
            "pkt_pos": "13390",
            "pkt_size": "5399",
            "width": 352,
            "height": 288,
            "pix_fmt": "yuv420p",
            "pict_type": "P",
            "coded_picture_number": 1,
            "display_picture_number": 0,
            "interlaced_frame": 0,
            "top_field_first": 0,
            "repeat_pict": 0
        },
        {
            "media_type": "video",
            "stream_index": 0,
            "key_frame": 0,
            "pkt_pts": 2,
            "pkt_pts_time": "0.125000",
            "pkt_dts": 2,
            "pkt_dts_time": "0.125000",
            "best_effort_timestamp": 2,
            "best_effort_timestamp_time": "0.125000",
            "pkt_duration": 1,
            "pkt_duration_time": "0.062500",
            "pkt_pos": "18798",
            "pkt_size": "4509",
            "width": 352,
            "height": 288,
            "pix_fmt": "yuv420p",
            "pict_type": "P",
            "coded_picture_number": 2,
            "display_picture_number": 0,
            "interlaced_frame": 0,
            "top_field_first": 0,
            "repeat_pict": 0
        },
        {
            "media_type": "video",
            "stream_index": 0,
            "key_frame": 0,
            "pkt_pts": 3,
            "pkt_pts_time": "0.187500",
            "pkt_dts": 3,
            "pkt_dts_time": "0.187500",
            "best_effort_timestamp": 3,
            "best_effort_timestamp_time": "0.187500",
            "pkt_duration": 1,
            "pkt_duration_time": "0.062500",
            "pkt_pos": "23316",
            "pkt_size": "3659",
            "width": 352,
            "height": 288,
            "pix_fmt": "yuv420p",
            "pict_type": "P",
            "coded_picture_number": 3,
            "display_picture_number": 0,
            "interlaced_frame": 0,
            "top_field_first": 0,
            "repeat_pict": 0
        },
        {
            "media_type": "video",
            "stream_index": 0,
            "key_frame": 0,
            "pkt_pts": 4,
            "pkt_pts_time": "0.250000",
            "pkt_dts": 4,
            "pkt_dts_time": "0.250000",
            "best_effort_timestamp": 4,
            "best_effort_timestamp_time": "0.250000",
            "pkt_duration": 1,
            "pkt_duration_time": "0.062500",
            "pkt_pos": "26984",
            "pkt_size": "3595",
            "width": 352,
            "height": 288,
            "pix_fmt": "yuv420p",
            "pict_type": "P",
            "coded_picture_number": 4,
            "display_picture_number": 0,
            "interlaced_frame": 0,
            "top_field_first": 0,
            "repeat_pict": 0
        },
        {
            "media_type": "video",
            "stream_index": 0,
            "key_frame": 0,
            "pkt_pts": 5,
            "pkt_pts_time": "0.312500",
            "pkt_dts": 5,
            "pkt_dts_time": "0.312500",
            "best_effort_timestamp": 5,
            "best_effort_timestamp_time": "0.312500",
            "pkt_duration": 1,
            "pkt_duration_time": "0.062500",
            "pkt_pos": "30588",
            "pkt_size": "4078",
            "width": 352,
            "height": 288,
            "pix_fmt": "yuv420p",
            "pict_type": "P",
            "coded_picture_number": 5,
            "display_picture_number": 0,
            "interlaced_frame": 0,
            "top_field_first": 0,
            "repeat_pict": 0
        },
        {
            "media_type": "video",
            "stream_index": 0,
            "key_frame": 0,
            "pkt_pts": 6,
            "pkt_pts_time": "0.375000",
            "pkt_dts": 6,
            "pkt_dts_time": "0.375000",
            "best_effort_timestamp": 6,
            "best_effort_timestamp_time": "0.375000",
            "pkt_duration": 1,
            "pkt_duration_time": "0.062500",
            "pkt_pos": "34674",
            "pkt_size": "4354",
            "width": 352,
            "height": 288,
            "pix_fmt": "yuv420p",
            "pict_type": "P",
            "coded_picture_number": 6,
            "display_picture_number": 0,
            "interlaced_frame": 0,
            "top_field_first": 0,
            "repeat_pict": 0
        },
        {
            "media_type": "video",
            "stream_index": 0,
            "key_frame": 0,
            "pkt_pts": 7,
            "pkt_pts_time": "0.437500",
            "pkt_dts": 7,
            "pkt_dts_time": "0.437500",
            "best_effort_timestamp": 7,
            "best_effort_timestamp_time": "0.437500",
            "pkt_duration": 1,
            "pkt_duration_time": "0.062500",
            "pkt_pos": "39036",
            "pkt_size": "4501",
            "width": 352,
            "height": 288,
            "pix_fmt": "yuv420p",
            "pict_type": "P",
            "coded_picture_number": 7,
            "display_picture_number": 0,
            "interlaced_frame": 0,
            "top_field_first": 0,
            "repeat_pict": 0
        },
        {
            "media_type": "video",
            "stream_index": 0,
            "key_frame": 0,
            "pkt_pts": 8,
            "pkt_pts_time": "0.500000",
            "pkt_dts": 8,
            "pkt_dts_time": "0.500000",
            "best_effort_timestamp": 8,
            "best_effort_timestamp_time": "0.500000",
            "pkt_duration": 1,
            "pkt_duration_time": "0.062500",
            "pkt_pos": "43546",
            "pkt_size": "4651",
            "width": 352,
            "height": 288,
            "pix_fmt": "yuv420p",
            "pict_type": "P",
            "coded_picture_number": 8,
            "display_picture_number": 0,
            "interlaced_frame": 0,
            "top_field_first": 0,
            "repeat_pict": 0
        },
        {
            "media_type": "video",
            "stream_index": 0,
            "key_frame": 0,
            "pkt_pts": 9,
            "pkt_pts_time": "0.562500",
            "pkt_dts": 9,
            "pkt_dts_time": "0.562500",
            "best_effort_timestamp": 9,
            "best_effort_timestamp_time": "0.562500",
            "pkt_duration": 1,
            "pkt_duration_time": "0.062500",
            "pkt_pos": "48206",
            "pkt_size": "5190",
            "width": 352,
            "height": 288,
            "pix_fmt": "yuv420p",
            "pict_type": "P",
            "coded_picture_number": 9,
            "display_picture_number": 0,
            "interlaced_frame": 0,
            "top_field_first": 0,
            "repeat_pict": 0
        },
        {
            "media_type": "video",
            "stream_index": 0,
            "key_frame": 0,
            "pkt_pts": 10,
            "pkt_pts_time": "0.625000",
            "pkt_dts": 10,
            "pkt_dts_time": "0.625000",
            "best_effort_timestamp": 10,
            "best_effort_timestamp_time": "0.625000",
            "pkt_duration": 1,
            "pkt_duration_time": "0.062500",
            "pkt_pos": "53404",
            "pkt_size": "4954",
            "width": 352,
            "height": 288,
            "pix_fmt": "yuv420p",
            "pict_type": "P",
            "coded_picture_number": 10,
            "display_picture_number": 0,
            "interlaced_frame": 0,
            "top_field_first": 0,
            "repeat_pict": 0
        },
        {
            "media_type": "video",
            "stream_index": 0,
            "key_frame": 0,
            "pkt_pts": 11,
            "pkt_pts_time": "0.687500",
            "pkt_dts": 11,
            "pkt_dts_time": "0.687500",
            "best_effort_timestamp": 11,
            "best_effort_timestamp_time": "0.687500",
            "pkt_duration": 1,
            "pkt_duration_time": "0.062500",
            "pkt_pos": "58366",
            "pkt_size": "5061",
            "width": 352,
            "height": 288,
            "pix_fmt": "yuv420p",
            "pict_type": "P",
            "coded_picture_number": 11,
            "display_picture_number": 0,
            "interlaced_frame": 0,
            "top_field_first": 0,
            "repeat_pict": 0
        },
        {
            "media_type": "video",
            "stream_index": 0,
            "key_frame": 0,
            "pkt_pts": 12,
            "pkt_pts_time": "0.750000",
            "pkt_dts": 12,
            "pkt_dts_time": "0.750000",
            "best_effort_timestamp": 12,
            "best_effort_timestamp_time": "0.750000",
            "pkt_duration": 1,
            "pkt_duration_time": "0.062500",
            "pkt_pos": "63436",
            "pkt_size": "7559",
            "width": 352,
            "height": 288,
            "pix_fmt": "yuv420p",
            "pict_type": "P",
            "coded_picture_number": 12,
            "display_picture_number": 0,
            "interlaced_frame": 0,
            "top_field_first": 0,
            "repeat_pict": 0
        },
        {
            "media_type": "video",
            "stream_index": 0,
            "key_frame": 0,
            "pkt_pts": 13,
            "pkt_pts_time": "0.812500",
            "pkt_dts": 13,
            "pkt_dts_time": "0.812500",
            "best_effort_timestamp": 13,
            "best_effort_timestamp_time": "0.812500",
            "pkt_duration": 1,
            "pkt_duration_time": "0.062500",
            "pkt_pos": "71004",
            "pkt_size": "5482",
            "width": 352,
            "height": 288,
            "pix_fmt": "yuv420p",
            "pict_type": "P",
            "coded_picture_number": 13,
            "display_picture_number": 0,
            "interlaced_frame": 0,
            "top_field_first": 0,
            "repeat_pict": 0
        },
        {
            "media_type": "video",
            "stream_index": 0,
            "key_frame": 0,
            "pkt_pts": 14,
            "pkt_pts_time": "0.875000",
            "pkt_dts": 14,
            "pkt_dts_time": "0.875000",
            "best_effort_timestamp": 14,
            "best_effort_timestamp_time": "0.875000",
            "pkt_duration": 1,
            "pkt_duration_time": "0.062500",
            "pkt_pos": "76494",
            "pkt_size": "4570",
            "width": 352,
            "height": 288,
            "pix_fmt": "yuv420p",
            "pict_type": "P",
            "coded_picture_number": 14,
            "display_picture_number": 0,
            "interlaced_frame": 0,
            "top_field_first": 0,
            "repeat_pict": 0
        },
        {
            "media_type": "video",
            "stream_index": 0,
            "key_frame": 0,
            "pkt_pts": 15,
            "pkt_pts_time": "0.937500",
            "pkt_dts": 15,
            "pkt_dts_time": "0.937500",
            "best_effort_timestamp": 15,
            "best_effort_timestamp_time": "0.937500",
            "pkt_duration": 1,
            "pkt_duration_time": "0.062500",
            "pkt_pos": "81072",
            "pkt_size": "4437",
            "width": 352,
            "height": 288,
            "pix_fmt": "yuv420p",
            "pict_type": "P",
            "coded_picture_number": 15,
            "display_picture_number": 0,
            "interlaced_frame": 0,
            "top_field_first": 0,
            "repeat_pict": 0
        },
        {
            "media_type": "video",
            "stream_index": 0,
            "key_frame": 0,
            "pkt_pts": 16,
            "pkt_pts_time": "1.000000",
            "pkt_dts": 16,
            "pkt_dts_time": "1.000000",
            "best_effort_timestamp": 16,
            "best_effort_timestamp_time": "1.000000",
            "pkt_duration": 1,
            "pkt_duration_time": "0.062500",
            "pkt_pos": "85518",
            "pkt_size": "4932",
            "width": 352,
            "height": 288,
            "pix_fmt": "yuv420p",
            "pict_type": "P",
            "coded_picture_number": 16,
            "display_picture_number": 0,
            "interlaced_frame": 0,
            "top_field_first": 0,
            "repeat_pict": 0
        },
        {
            "media_type": "video",
            "stream_index": 0,
            "key_frame": 0,
            "pkt_pts": 17,
            "pkt_pts_time": "1.062500",
            "pkt_dts": 17,
            "pkt_dts_time": "1.062500",
            "best_effort_timestamp": 17,
            "best_effort_timestamp_time": "1.062500",
            "pkt_duration": 1,
            "pkt_duration_time": "0.062500",
            "pkt_pos": "90458",
            "pkt_size": "5346",
            "width": 352,
            "height": 288,
            "pix_fmt": "yuv420p",
            "pict_type": "P",
            "coded_picture_number": 17,
            "display_picture_number": 0,
            "interlaced_frame": 0,
            "top_field_first": 0,
            "repeat_pict": 0
        },
        {
            "media_type": "video",
            "stream_index": 0,
            "key_frame": 0,
            "pkt_pts": 18,
            "pkt_pts_time": "1.125000",
            "pkt_dts": 18,
            "pkt_dts_time": "1.125000",
            "best_effort_timestamp": 18,
            "best_effort_timestamp_time": "1.125000",
            "pkt_duration": 1,
            "pkt_duration_time": "0.062500",
            "pkt_pos": "95812",
            "pkt_size": "5216",
            "width": 352,
            "height": 288,
            "pix_fmt": "yuv420p",
            "pict_type": "P",
            "coded_picture_number": 18,
            "display_picture_number": 0,
            "interlaced_frame": 0,
            "top_field_first": 0,
            "repeat_pict": 0
        },
        {
            "media_type": "video",
            "stream_index": 0,
            "key_frame": 0,
            "pkt_pts": 19,
            "pkt_pts_time": "1.187500",
            "pkt_dts": 19,
            "pkt_dts_time": "1.187500",
            "best_effort_timestamp": 19,
            "best_effort_timestamp_time": "1.187500",
            "pkt_duration": 1,
            "pkt_duration_time": "0.062500",
            "pkt_pos": "101036",
            "pkt_size": "4265",
            "width": 352,
            "height": 288,
            "pix_fmt": "yuv420p",
            "pict_type": "P",
            "coded_picture_number": 19,
            "display_picture_number": 0,
            "interlaced_frame": 0,
            "top_field_first": 0,
            "repeat_pict": 0
        },
        {
            "media_type": "video",
            "stream_index": 0,
            "key_frame": 0,
            "pkt_pts": 20,
            "pkt_pts_time": "1.250000",
            "pkt_dts": 20,
            "pkt_dts_time": "1.250000",
            "best_effort_timestamp": 20,
            "best_effort_timestamp_time": "1.250000",
            "pkt_duration": 1,
            "pkt_duration_time": "0.062500",
            "pkt_pos": "105310",
            "pkt_size": "4135",
            "width": 352,
            "height": 288,
            "pix_fmt": "yuv420p",
            "pict_type": "P",
            "coded_picture_number": 20,
            "display_picture_number": 0,
            "interlaced_frame": 0,
            "top_field_first": 0,
            "repeat_pict": 0
        },
        {
            "media_type": "video",
            "stream_index": 0,
            "key_frame": 0,
            "pkt_pts": 21,
            "pkt_pts_time": "1.312500",
            "pkt_dts": 21,
            "pkt_dts_time": "1.312500",
            "best_effort_timestamp": 21,
            "best_effort_timestamp_time": "1.312500",
            "pkt_duration": 1,
            "pkt_duration_time": "0.062500",
            "pkt_pos": "109454",
            "pkt_size": "5065",
            "width": 352,
            "height": 288,
            "pix_fmt": "yuv420p",
            "pict_type": "P",
            "coded_picture_number": 21,
            "display_picture_number": 0,
            "interlaced_frame": 0,
            "top_field_first": 0,
            "repeat_pict": 0
        },
        {
            "media_type": "video",
            "stream_index": 0,
            "key_frame": 0,
            "pkt_pts": 22,
            "pkt_pts_time": "1.375000",
            "pkt_dts": 22,
            "pkt_dts_time": "1.375000",
            "best_effort_timestamp": 22,
            "best_effort_timestamp_time": "1.375000",
            "pkt_duration": 1,
            "pkt_duration_time": "0.062500",
            "pkt_pos": "114528",
            "pkt_size": "5336",
            "width": 352,
            "height": 288,
            "pix_fmt": "yuv420p",
            "pict_type": "P",
            "coded_picture_number": 22,
            "display_picture_number": 0,
            "interlaced_frame": 0,
            "top_field_first": 0,
            "repeat_pict": 0
        },
        {
            "media_type": "video",
            "stream_index": 0,
            "key_frame": 0,
            "pkt_pts": 23,
            "pkt_pts_time": "1.437500",
            "pkt_dts": 23,
            "pkt_dts_time": "1.437500",
            "best_effort_timestamp": 23,
            "best_effort_timestamp_time": "1.437500",
            "pkt_duration": 1,
            "pkt_duration_time": "0.062500",
            "pkt_pos": "119872",
            "pkt_size": "5348",
            "width": 352,
            "height": 288,
            "pix_fmt": "yuv420p",
            "pict_type": "P",
            "coded_picture_number": 23,
            "display_picture_number": 0,
            "interlaced_frame": 0,
            "top_field_first": 0,
            "repeat_pict": 0
        },
        {
            "media_type": "video",
            "stream_index": 0,
            "key_frame": 0,
            "pkt_pts": 24,
            "pkt_pts_time": "1.500000",
            "pkt_dts": 24,
            "pkt_dts_time": "1.500000",
            "best_effort_timestamp": 24,
            "best_effort_timestamp_time": "1.500000",
            "pkt_duration": 1,
            "pkt_duration_time": "0.062500",
            "pkt_pos": "125228",
            "pkt_size": "7202",
            "width": 352,
            "height": 288,
            "pix_fmt": "yuv420p",
            "pict_type": "P",
            "coded_picture_number": 24,
            "display_picture_number": 0,
            "interlaced_frame": 0,
            "top_field_first": 0,
            "repeat_pict": 0
        },
        {
            "media_type": "video",
            "stream_index": 0,
            "key_frame": 0,
            "pkt_pts": 25,
            "pkt_pts_time": "1.562500",
            "pkt_dts": 25,
            "pkt_dts_time": "1.562500",
            "best_effort_timestamp": 25,
            "best_effort_timestamp_time": "1.562500",
            "pkt_duration": 1,
            "pkt_duration_time": "0.062500",
            "pkt_pos": "132438",
            "pkt_size": "4958",
            "width": 352,
            "height": 288,
            "pix_fmt": "yuv420p",
            "pict_type": "P",
            "coded_picture_number": 25,
            "display_picture_number": 0,
            "interlaced_frame": 0,
            "top_field_first": 0,
            "repeat_pict": 0
        },
        {
            "media_type": "video",
            "stream_index": 0,
            "key_frame": 0,
            "pkt_pts": 26,
            "pkt_pts_time": "1.625000",
            "pkt_dts": 26,
            "pkt_dts_time": "1.625000",
            "best_effort_timestamp": 26,
            "best_effort_timestamp_time": "1.625000",
            "pkt_duration": 1,
            "pkt_duration_time": "0.062500",
            "pkt_pos": "137404",
            "pkt_size": "4758",
            "width": 352,
            "height": 288,
            "pix_fmt": "yuv420p",
            "pict_type": "P",
            "coded_picture_number": 26,
            "display_picture_number": 0,
            "interlaced_frame": 0,
            "top_field_first": 0,
            "repeat_pict": 0
        },
        {
            "media_type": "video",
            "stream_index": 0,
            "key_frame": 0,
            "pkt_pts": 27,
            "pkt_pts_time": "1.687500",
            "pkt_dts": 27,
            "pkt_dts_time": "1.687500",
            "best_effort_timestamp": 27,
            "best_effort_timestamp_time": "1.687500",
            "pkt_duration": 1,
            "pkt_duration_time": "0.062500",
            "pkt_pos": "142170",
            "pkt_size": "5204",
            "width": 352,
            "height": 288,
            "pix_fmt": "yuv420p",
            "pict_type": "P",
            "coded_picture_number": 27,
            "display_picture_number": 0,
            "interlaced_frame": 0,
            "top_field_first": 0,
            "repeat_pict": 0
        },
        {
            "media_type": "video",
            "stream_index": 0,
            "key_frame": 0,
            "pkt_pts": 28,
            "pkt_pts_time": "1.750000",
            "pkt_dts": 28,
            "pkt_dts_time": "1.750000",
            "best_effort_timestamp": 28,
            "best_effort_timestamp_time": "1.750000",
            "pkt_duration": 1,
            "pkt_duration_time": "0.062500",
            "pkt_pos": "147382",
            "pkt_size": "5377",
            "width": 352,
            "height": 288,
            "pix_fmt": "yuv420p",
            "pict_type": "P",
            "coded_picture_number": 28,
            "display_picture_number": 0,
            "interlaced_frame": 0,
            "top_field_first": 0,
            "repeat_pict": 0
        },
        {
            "media_type": "video",
            "stream_index": 0,
            "key_frame": 0,
            "pkt_pts": 29,
            "pkt_pts_time": "1.812500",
            "pkt_dts": 29,
            "pkt_dts_time": "1.812500",
            "best_effort_timestamp": 29,
            "best_effort_timestamp_time": "1.812500",
            "pkt_duration": 1,
            "pkt_duration_time": "0.062500",
            "pkt_pos": "152768",
            "pkt_size": "5295",
            "width": 352,
            "height": 288,
            "pix_fmt": "yuv420p",
            "pict_type": "P",
            "coded_picture_number": 29,
            "display_picture_number": 0,
            "interlaced_frame": 0,
            "top_field_first": 0,
            "repeat_pict": 0
        },
        {
            "media_type": "video",
            "stream_index": 0,
            "key_frame": 0,
            "pkt_pts": 30,
            "pkt_pts_time": "1.875000",
            "pkt_dts": 30,
            "pkt_dts_time": "1.875000",
            "best_effort_timestamp": 30,
            "best_effort_timestamp_time": "1.875000",
            "pkt_duration": 1,
            "pkt_duration_time": "0.062500",
            "pkt_pos": "158072",
            "pkt_size": "5469",
            "width": 352,
            "height": 288,
            "pix_fmt": "yuv420p",
            "pict_type": "P",
            "coded_picture_number": 30,
            "display_picture_number": 0,
            "interlaced_frame": 0,
            "top_field_first": 0,
            "repeat_pict": 0
        },
        {
            "media_type": "video",
            "stream_index": 0,
            "key_frame": 0,
            "pkt_pts": 31,
            "pkt_pts_time": "1.937500",
            "pkt_dts": 31,
            "pkt_dts_time": "1.937500",
            "best_effort_timestamp": 31,
            "best_effort_timestamp_time": "1.937500",
            "pkt_duration": 1,
            "pkt_duration_time": "0.062500",
            "pkt_pos": "163550",
            "pkt_size": "4584",
            "width": 352,
            "height": 288,
            "pix_fmt": "yuv420p",
            "pict_type": "P",
            "coded_picture_number": 31,
            "display_picture_number": 0,
            "interlaced_frame": 0,
            "top_field_first": 0,
            "repeat_pict": 0
        },
        {
            "media_type": "video",
            "stream_index": 0,
            "key_frame": 0,
            "pkt_pts": 32,
            "pkt_pts_time": "2.000000",
            "pkt_dts": 32,
            "pkt_dts_time": "2.000000",
            "best_effort_timestamp": 32,
            "best_effort_timestamp_time": "2.000000",
            "pkt_duration": 1,
            "pkt_duration_time": "0.062500",
            "pkt_pos": "168142",
            "pkt_size": "4780",
            "width": 352,
            "height": 288,
            "pix_fmt": "yuv420p",
            "pict_type": "P",
            "coded_picture_number": 32,
            "display_picture_number": 0,
            "interlaced_frame": 0,
            "top_field_first": 0,
            "repeat_pict": 0
        },
        {
            "media_type": "video",
            "stream_index": 0,
            "key_frame": 0,
            "pkt_pts": 33,
            "pkt_pts_time": "2.062500",
            "pkt_dts": 33,
            "pkt_dts_time": "2.062500",
            "best_effort_timestamp": 33,
            "best_effort_timestamp_time": "2.062500",
            "pkt_duration": 1,
            "pkt_duration_time": "0.062500",
            "pkt_pos": "172930",
            "pkt_size": "4471",
            "width": 352,
            "height": 288,
            "pix_fmt": "yuv420p",
            "pict_type": "P",
            "coded_picture_number": 33,
            "display_picture_number": 0,
            "interlaced_frame": 0,
            "top_field_first": 0,
            "repeat_pict": 0
        },
        {
            "media_type": "video",
            "stream_index": 0,
            "key_frame": 0,
            "pkt_pts": 34,
            "pkt_pts_time": "2.125000",
            "pkt_dts": 34,
            "pkt_dts_time": "2.125000",
            "best_effort_timestamp": 34,
            "best_effort_timestamp_time": "2.125000",
            "pkt_duration": 1,
            "pkt_duration_time": "0.062500",
            "pkt_pos": "177410",
            "pkt_size": "4293",
            "width": 352,
            "height": 288,
            "pix_fmt": "yuv420p",
            "pict_type": "P",
            "coded_picture_number": 34,
            "display_picture_number": 0,
            "interlaced_frame": 0,
            "top_field_first": 0,
            "repeat_pict": 0
        },
        {
            "media_type": "video",
            "stream_index": 0,
            "key_frame": 0,
            "pkt_pts": 35,
            "pkt_pts_time": "2.187500",
            "pkt_dts": 35,
            "pkt_dts_time": "2.187500",
            "best_effort_timestamp": 35,
            "best_effort_timestamp_time": "2.187500",
            "pkt_duration": 1,
            "pkt_duration_time": "0.062500",
            "pkt_pos": "181712",
            "pkt_size": "4136",
            "width": 352,
            "height": 288,
            "pix_fmt": "yuv420p",
            "pict_type": "P",
            "coded_picture_number": 35,
            "display_picture_number": 0,
            "interlaced_frame": 0,
            "top_field_first": 0,
            "repeat_pict": 0
        },
        {
            "media_type": "video",
            "stream_index": 0,
            "key_frame": 0,
            "pkt_pts": 36,
            "pkt_pts_time": "2.250000",
            "pkt_dts": 36,
            "pkt_dts_time": "2.250000",
            "best_effort_timestamp": 36,
            "best_effort_timestamp_time": "2.250000",
            "pkt_duration": 1,
            "pkt_duration_time": "0.062500",
            "pkt_pos": "185856",
            "pkt_size": "7572",
            "width": 352,
            "height": 288,
            "pix_fmt": "yuv420p",
            "pict_type": "P",
            "coded_picture_number": 36,
            "display_picture_number": 0,
            "interlaced_frame": 0,
            "top_field_first": 0,
            "repeat_pict": 0
        },
        {
            "media_type": "video",
            "stream_index": 0,
            "key_frame": 0,
            "pkt_pts": 37,
            "pkt_pts_time": "2.312500",
            "pkt_dts": 37,
            "pkt_dts_time": "2.312500",
            "best_effort_timestamp": 37,
            "best_effort_timestamp_time": "2.312500",
            "pkt_duration": 1,
            "pkt_duration_time": "0.062500",
            "pkt_pos": "193436",
            "pkt_size": "4409",
            "width": 352,
            "height": 288,
            "pix_fmt": "yuv420p",
            "pict_type": "P",
            "coded_picture_number": 37,
            "display_picture_number": 0,
            "interlaced_frame": 0,
            "top_field_first": 0,
            "repeat_pict": 0
        },
        {
            "media_type": "video",
            "stream_index": 0,
            "key_frame": 0,
            "pkt_pts": 38,
            "pkt_pts_time": "2.375000",
            "pkt_dts": 38,
            "pkt_dts_time": "2.375000",
            "best_effort_timestamp": 38,
            "best_effort_timestamp_time": "2.375000",
            "pkt_duration": 1,
            "pkt_duration_time": "0.062500",
            "pkt_pos": "197854",
            "pkt_size": "4290",
            "width": 352,
            "height": 288,
            "pix_fmt": "yuv420p",
            "pict_type": "P",
            "coded_picture_number": 38,
            "display_picture_number": 0,
            "interlaced_frame": 0,
            "top_field_first": 0,
            "repeat_pict": 0
        },
        {
            "media_type": "video",
            "stream_index": 0,
            "key_frame": 0,
            "pkt_pts": 39,
            "pkt_pts_time": "2.437500",
            "pkt_dts": 39,
            "pkt_dts_time": "2.437500",
            "best_effort_timestamp": 39,
            "best_effort_timestamp_time": "2.437500",
            "pkt_duration": 1,
            "pkt_duration_time": "0.062500",
            "pkt_pos": "202152",
            "pkt_size": "4131",
            "width": 352,
            "height": 288,
            "pix_fmt": "yuv420p",
            "pict_type": "P",
            "coded_picture_number": 39,
            "display_picture_number": 0,
            "interlaced_frame": 0,
            "top_field_first": 0,
            "repeat_pict": 0
        },
        {
            "media_type": "video",
            "stream_index": 0,
            "key_frame": 0,
            "pkt_pts": 40,
            "pkt_pts_time": "2.500000",
            "pkt_dts": 40,
            "pkt_dts_time": "2.500000",
            "best_effort_timestamp": 40,
            "best_effort_timestamp_time": "2.500000",
            "pkt_duration": 1,
            "pkt_duration_time": "0.062500",
            "pkt_pos": "206292",
            "pkt_size": "4130",
            "width": 352,
            "height": 288,
            "pix_fmt": "yuv420p",
            "pict_type": "P",
            "coded_picture_number": 40,
            "display_picture_number": 0,
            "interlaced_frame": 0,
            "top_field_first": 0,
            "repeat_pict": 0
        },
        {
            "media_type": "video",
            "stream_index": 0,
            "key_frame": 0,
            "pkt_pts": 41,
            "pkt_pts_time": "2.562500",
            "pkt_dts": 41,
            "pkt_dts_time": "2.562500",
            "best_effort_timestamp": 41,
            "best_effort_timestamp_time": "2.562500",
            "pkt_duration": 1,
            "pkt_duration_time": "0.062500",
            "pkt_pos": "210430",
            "pkt_size": "4011",
            "width": 352,
            "height": 288,
            "pix_fmt": "yuv420p",
            "pict_type": "P",
            "coded_picture_number": 41,
            "display_picture_number": 0,
            "interlaced_frame": 0,
            "top_field_first": 0,
            "repeat_pict": 0
        },
        {
            "media_type": "video",
            "stream_index": 0,
            "key_frame": 0,
            "pkt_pts": 42,
            "pkt_pts_time": "2.625000",
            "pkt_dts": 42,
            "pkt_dts_time": "2.625000",
            "best_effort_timestamp": 42,
            "best_effort_timestamp_time": "2.625000",
            "pkt_duration": 1,
            "pkt_duration_time": "0.062500",
            "pkt_pos": "214450",
            "pkt_size": "3969",
            "width": 352,
            "height": 288,
            "pix_fmt": "yuv420p",
            "pict_type": "P",
            "coded_picture_number": 42,
            "display_picture_number": 0,
            "interlaced_frame": 0,
            "top_field_first": 0,
            "repeat_pict": 0
        },
        {
            "media_type": "video",
            "stream_index": 0,
            "key_frame": 0,
            "pkt_pts": 43,
            "pkt_pts_time": "2.687500",
            "pkt_dts": 43,
            "pkt_dts_time": "2.687500",
            "best_effort_timestamp": 43,
            "best_effort_timestamp_time": "2.687500",
            "pkt_duration": 1,
            "pkt_duration_time": "0.062500",
            "pkt_pos": "218428",
            "pkt_size": "4125",
            "width": 352,
            "height": 288,
            "pix_fmt": "yuv420p",
            "pict_type": "P",
            "coded_picture_number": 43,
            "display_picture_number": 0,
            "interlaced_frame": 0,
            "top_field_first": 0,
            "repeat_pict": 0
        },
        {
            "media_type": "video",
            "stream_index": 0,
            "key_frame": 0,
            "pkt_pts": 44,
            "pkt_pts_time": "2.750000",
            "pkt_dts": 44,
            "pkt_dts_time": "2.750000",
            "best_effort_timestamp": 44,
            "best_effort_timestamp_time": "2.750000",
            "pkt_duration": 1,
            "pkt_duration_time": "0.062500",
            "pkt_pos": "222562",
            "pkt_size": "4285",
            "width": 352,
            "height": 288,
            "pix_fmt": "yuv420p",
            "pict_type": "P",
            "coded_picture_number": 44,
            "display_picture_number": 0,
            "interlaced_frame": 0,
            "top_field_first": 0,
            "repeat_pict": 0
        },
        {
            "media_type": "video",
            "stream_index": 0,
            "key_frame": 0,
            "pkt_pts": 45,
            "pkt_pts_time": "2.812500",
            "pkt_dts": 45,
            "pkt_dts_time": "2.812500",
            "best_effort_timestamp": 45,
            "best_effort_timestamp_time": "2.812500",
            "pkt_duration": 1,
            "pkt_duration_time": "0.062500",
            "pkt_pos": "226856",
            "pkt_size": "4424",
            "width": 352,
            "height": 288,
            "pix_fmt": "yuv420p",
            "pict_type": "P",
            "coded_picture_number": 45,
            "display_picture_number": 0,
            "interlaced_frame": 0,
            "top_field_first": 0,
            "repeat_pict": 0
        },
        {
            "media_type": "video",
            "stream_index": 0,
            "key_frame": 0,
            "pkt_pts": 46,
            "pkt_pts_time": "2.875000",
            "pkt_dts": 46,
            "pkt_dts_time": "2.875000",
            "best_effort_timestamp": 46,
            "best_effort_timestamp_time": "2.875000",
            "pkt_duration": 1,
            "pkt_duration_time": "0.062500",
            "pkt_pos": "231288",
            "pkt_size": "4736",
            "width": 352,
            "height": 288,
            "pix_fmt": "yuv420p",
            "pict_type": "P",
            "coded_picture_number": 46,
            "display_picture_number": 0,
            "interlaced_frame": 0,
            "top_field_first": 0,
            "repeat_pict": 0
        },
        {
            "media_type": "video",
            "stream_index": 0,
            "key_frame": 0,
            "pkt_pts": 47,
            "pkt_pts_time": "2.937500",
            "pkt_dts": 47,
            "pkt_dts_time": "2.937500",
            "best_effort_timestamp": 47,
            "best_effort_timestamp_time": "2.937500",
            "pkt_duration": 1,
            "pkt_duration_time": "0.062500",
            "pkt_pos": "236032",
            "pkt_size": "4789",
            "width": 352,
            "height": 288,
            "pix_fmt": "yuv420p",
            "pict_type": "P",
            "coded_picture_number": 47,
            "display_picture_number": 0,
            "interlaced_frame": 0,
            "top_field_first": 0,
            "repeat_pict": 0
        },
        {
            "media_type": "video",
            "stream_index": 0,
            "key_frame": 0,
            "pkt_pts": 48,
            "pkt_pts_time": "3.000000",
            "pkt_dts": 48,
            "pkt_dts_time": "3.000000",
            "best_effort_timestamp": 48,
            "best_effort_timestamp_time": "3.000000",
            "pkt_duration": 1,
            "pkt_duration_time": "0.062500",
            "pkt_pos": "240830",
            "pkt_size": "7644",
            "width": 352,
            "height": 288,
            "pix_fmt": "yuv420p",
            "pict_type": "P",
            "coded_picture_number": 48,
            "display_picture_number": 0,
            "interlaced_frame": 0,
            "top_field_first": 0,
            "repeat_pict": 0
        },
        {
            "media_type": "video",
            "stream_index": 0,
            "key_frame": 0,
            "pkt_pts": 49,
            "pkt_pts_time": "3.062500",
            "pkt_dts": 49,
            "pkt_dts_time": "3.062500",
            "best_effort_timestamp": 49,
            "best_effort_timestamp_time": "3.062500",
            "pkt_duration": 1,
            "pkt_duration_time": "0.062500",
            "pkt_pos": "248482",
            "pkt_size": "4710",
            "width": 352,
            "height": 288,
            "pix_fmt": "yuv420p",
            "pict_type": "P",
            "coded_picture_number": 49,
            "display_picture_number": 0,
            "interlaced_frame": 0,
            "top_field_first": 0,
            "repeat_pict": 0
        },
        {
            "media_type": "video",
            "stream_index": 0,
            "key_frame": 0,
            "pkt_pts": 50,
            "pkt_pts_time": "3.125000",
            "pkt_dts": 50,
            "pkt_dts_time": "3.125000",
            "best_effort_timestamp": 50,
            "best_effort_timestamp_time": "3.125000",
            "pkt_duration": 1,
            "pkt_duration_time": "0.062500",
            "pkt_pos": "253200",
            "pkt_size": "4428",
            "width": 352,
            "height": 288,
            "pix_fmt": "yuv420p",
            "pict_type": "P",
            "coded_picture_number": 50,
            "display_picture_number": 0,
            "interlaced_frame": 0,
            "top_field_first": 0,
            "repeat_pict": 0
        },
        {
            "media_type": "video",
            "stream_index": 0,
            "key_frame": 0,
            "pkt_pts": 51,
            "pkt_pts_time": "3.187500",
            "pkt_dts": 51,
            "pkt_dts_time": "3.187500",
            "best_effort_timestamp": 51,
            "best_effort_timestamp_time": "3.187500",
            "pkt_duration": 1,
            "pkt_duration_time": "0.062500",
            "pkt_pos": "257636",
            "pkt_size": "4347",
            "width": 352,
            "height": 288,
            "pix_fmt": "yuv420p",
            "pict_type": "P",
            "coded_picture_number": 51,
            "display_picture_number": 0,
            "interlaced_frame": 0,
            "top_field_first": 0,
            "repeat_pict": 0
        },
        {
            "media_type": "video",
            "stream_index": 0,
            "key_frame": 0,
            "pkt_pts": 52,
            "pkt_pts_time": "3.250000",
            "pkt_dts": 52,
            "pkt_dts_time": "3.250000",
            "best_effort_timestamp": 52,
            "best_effort_timestamp_time": "3.250000",
            "pkt_duration": 1,
            "pkt_duration_time": "0.062500",
            "pkt_pos": "261992",
            "pkt_size": "3847",
            "width": 352,
            "height": 288,
            "pix_fmt": "yuv420p",
            "pict_type": "P",
            "coded_picture_number": 52,
            "display_picture_number": 0,
            "interlaced_frame": 0,
            "top_field_first": 0,
            "repeat_pict": 0
        },
        {
            "media_type": "video",
            "stream_index": 0,
            "key_frame": 0,
            "pkt_pts": 53,
            "pkt_pts_time": "3.312500",
            "pkt_dts": 53,
            "pkt_dts_time": "3.312500",
            "best_effort_timestamp": 53,
            "best_effort_timestamp_time": "3.312500",
            "pkt_duration": 1,
            "pkt_duration_time": "0.062500",
            "pkt_pos": "265848",
            "pkt_size": "4813",
            "width": 352,
            "height": 288,
            "pix_fmt": "yuv420p",
            "pict_type": "P",
            "coded_picture_number": 53,
            "display_picture_number": 0,
            "interlaced_frame": 0,
            "top_field_first": 0,
            "repeat_pict": 0
        },
        {
            "media_type": "video",
            "stream_index": 0,
            "key_frame": 0,
            "pkt_pts": 54,
            "pkt_pts_time": "3.375000",
            "pkt_dts": 54,
            "pkt_dts_time": "3.375000",
            "best_effort_timestamp": 54,
            "best_effort_timestamp_time": "3.375000",
            "pkt_duration": 1,
            "pkt_duration_time": "0.062500",
            "pkt_pos": "270670",
            "pkt_size": "4593",
            "width": 352,
            "height": 288,
            "pix_fmt": "yuv420p",
            "pict_type": "P",
            "coded_picture_number": 54,
            "display_picture_number": 0,
            "interlaced_frame": 0,
            "top_field_first": 0,
            "repeat_pict": 0
        },
        {
            "media_type": "video",
            "stream_index": 0,
            "key_frame": 0,
            "pkt_pts": 55,
            "pkt_pts_time": "3.437500",
            "pkt_dts": 55,
            "pkt_dts_time": "3.437500",
            "best_effort_timestamp": 55,
            "best_effort_timestamp_time": "3.437500",
            "pkt_duration": 1,
            "pkt_duration_time": "0.062500",
            "pkt_pos": "275272",
            "pkt_size": "4451",
            "width": 352,
            "height": 288,
            "pix_fmt": "yuv420p",
            "pict_type": "P",
            "coded_picture_number": 55,
            "display_picture_number": 0,
            "interlaced_frame": 0,
            "top_field_first": 0,
            "repeat_pict": 0
        },
        {
            "media_type": "video",
            "stream_index": 0,
            "key_frame": 0,
            "pkt_pts": 56,
            "pkt_pts_time": "3.500000",
            "pkt_dts": 56,
            "pkt_dts_time": "3.500000",
            "best_effort_timestamp": 56,
            "best_effort_timestamp_time": "3.500000",
            "pkt_duration": 1,
            "pkt_duration_time": "0.062500",
            "pkt_pos": "279732",
            "pkt_size": "4767",
            "width": 352,
            "height": 288,
            "pix_fmt": "yuv420p",
            "pict_type": "P",
            "coded_picture_number": 56,
            "display_picture_number": 0,
            "interlaced_frame": 0,
            "top_field_first": 0,
            "repeat_pict": 0
        },
        {
            "media_type": "video",
            "stream_index": 0,
            "key_frame": 0,
            "pkt_pts": 57,
            "pkt_pts_time": "3.562500",
            "pkt_dts": 57,
            "pkt_dts_time": "3.562500",
            "best_effort_timestamp": 57,
            "best_effort_timestamp_time": "3.562500",
            "pkt_duration": 1,
            "pkt_duration_time": "0.062500",
            "pkt_pos": "284508",
            "pkt_size": "4897",
            "width": 352,
            "height": 288,
            "pix_fmt": "yuv420p",
            "pict_type": "P",
            "coded_picture_number": 57,
            "display_picture_number": 0,
            "interlaced_frame": 0,
            "top_field_first": 0,
            "repeat_pict": 0
        },
        {
            "media_type": "video",
            "stream_index": 0,
            "key_frame": 0,
            "pkt_pts": 58,
            "pkt_pts_time": "3.625000",
            "pkt_dts": 58,
            "pkt_dts_time": "3.625000",
            "best_effort_timestamp": 58,
            "best_effort_timestamp_time": "3.625000",
            "pkt_duration": 1,
            "pkt_duration_time": "0.062500",
            "pkt_pos": "289414",
            "pkt_size": "4596",
            "width": 352,
            "height": 288,
            "pix_fmt": "yuv420p",
            "pict_type": "P",
            "coded_picture_number": 58,
            "display_picture_number": 0,
            "interlaced_frame": 0,
            "top_field_first": 0,
            "repeat_pict": 0
        },
        {
            "media_type": "video",
            "stream_index": 0,
            "key_frame": 0,
            "pkt_pts": 59,
            "pkt_pts_time": "3.687500",
            "pkt_dts": 59,
            "pkt_dts_time": "3.687500",
            "best_effort_timestamp": 59,
            "best_effort_timestamp_time": "3.687500",
            "pkt_duration": 1,
            "pkt_duration_time": "0.062500",
            "pkt_pos": "294018",
            "pkt_size": "4907",
            "width": 352,
            "height": 288,
            "pix_fmt": "yuv420p",
            "pict_type": "P",
            "coded_picture_number": 59,
            "display_picture_number": 0,
            "interlaced_frame": 0,
            "top_field_first": 0,
            "repeat_pict": 0
        },
        {
            "media_type": "video",
            "stream_index": 0,
            "key_frame": 0,
            "pkt_pts": 60,
            "pkt_pts_time": "3.750000",
            "pkt_dts": 60,
            "pkt_dts_time": "3.750000",
            "best_effort_timestamp": 60,
            "best_effort_timestamp_time": "3.750000",
            "pkt_duration": 1,
            "pkt_duration_time": "0.062500",
            "pkt_pos": "298934",
            "pkt_size": "7290",
            "width": 352,
            "height": 288,
            "pix_fmt": "yuv420p",
            "pict_type": "P",
            "coded_picture_number": 60,
            "display_picture_number": 0,
            "interlaced_frame": 0,
            "top_field_first": 0,
            "repeat_pict": 0
        },
        {
            "media_type": "video",
            "stream_index": 0,
            "key_frame": 0,
            "pkt_pts": 61,
            "pkt_pts_time": "3.812500",
            "pkt_dts": 61,
            "pkt_dts_time": "3.812500",
            "best_effort_timestamp": 61,
            "best_effort_timestamp_time": "3.812500",
            "pkt_duration": 1,
            "pkt_duration_time": "0.062500",
            "pkt_pos": "306232",
            "pkt_size": "4475",
            "width": 352,
            "height": 288,
            "pix_fmt": "yuv420p",
            "pict_type": "P",
            "coded_picture_number": 61,
            "display_picture_number": 0,
            "interlaced_frame": 0,
            "top_field_first": 0,
            "repeat_pict": 0
        },
        {
            "media_type": "video",
            "stream_index": 0,
            "key_frame": 0,
            "pkt_pts": 62,
            "pkt_pts_time": "3.875000",
            "pkt_dts": 62,
            "pkt_dts_time": "3.875000",
            "best_effort_timestamp": 62,
            "best_effort_timestamp_time": "3.875000",
            "pkt_duration": 1,
            "pkt_duration_time": "0.062500",
            "pkt_pos": "310716",
            "pkt_size": "4107",
            "width": 352,
            "height": 288,
            "pix_fmt": "yuv420p",
            "pict_type": "P",
            "coded_picture_number": 62,
            "display_picture_number": 0,
            "interlaced_frame": 0,
            "top_field_first": 0,
            "repeat_pict": 0
        },
        {
            "media_type": "video",
            "stream_index": 0,
            "key_frame": 0,
            "pkt_pts": 63,
            "pkt_pts_time": "3.937500",
            "pkt_dts": 63,
            "pkt_dts_time": "3.937500",
            "best_effort_timestamp": 63,
            "best_effort_timestamp_time": "3.937500",
            "pkt_duration": 1,
            "pkt_duration_time": "0.062500",
            "pkt_pos": "314832",
            "pkt_size": "3955",
            "width": 352,
            "height": 288,
            "pix_fmt": "yuv420p",
            "pict_type": "P",
            "coded_picture_number": 63,
            "display_picture_number": 0,
            "interlaced_frame": 0,
            "top_field_first": 0,
            "repeat_pict": 0
        },
        {
            "media_type": "video",
            "stream_index": 0,
            "key_frame": 0,
            "pkt_pts": 64,
            "pkt_pts_time": "4.000000",
            "pkt_dts": 64,
            "pkt_dts_time": "4.000000",
            "best_effort_timestamp": 64,
            "best_effort_timestamp_time": "4.000000",
            "pkt_duration": 1,
            "pkt_duration_time": "0.062500",
            "pkt_pos": "318796",
            "pkt_size": "5053",
            "width": 352,
            "height": 288,
            "pix_fmt": "yuv420p",
            "pict_type": "P",
            "coded_picture_number": 64,
            "display_picture_number": 0,
            "interlaced_frame": 0,
            "top_field_first": 0,
            "repeat_pict": 0
        },
        {
            "media_type": "video",
            "stream_index": 0,
            "key_frame": 0,
            "pkt_pts": 65,
            "pkt_pts_time": "4.062500",
            "pkt_dts": 65,
            "pkt_dts_time": "4.062500",
            "best_effort_timestamp": 65,
            "best_effort_timestamp_time": "4.062500",
            "pkt_duration": 1,
            "pkt_duration_time": "0.062500",
            "pkt_pos": "323858",
            "pkt_size": "4662",
            "width": 352,
            "height": 288,
            "pix_fmt": "yuv420p",
            "pict_type": "P",
            "coded_picture_number": 65,
            "display_picture_number": 0,
            "interlaced_frame": 0,
            "top_field_first": 0,
            "repeat_pict": 0
        },
        {
            "media_type": "video",
            "stream_index": 0,
            "key_frame": 0,
            "pkt_pts": 66,
            "pkt_pts_time": "4.125000",
            "pkt_dts": 66,
            "pkt_dts_time": "4.125000",
            "best_effort_timestamp": 66,
            "best_effort_timestamp_time": "4.125000",
            "pkt_duration": 1,
            "pkt_duration_time": "0.062500",
            "pkt_pos": "328528",
            "pkt_size": "4549",
            "width": 352,
            "height": 288,
            "pix_fmt": "yuv420p",
            "pict_type": "P",
            "coded_picture_number": 66,
            "display_picture_number": 0,
            "interlaced_frame": 0,
            "top_field_first": 0,
            "repeat_pict": 0
        },
        {
            "media_type": "video",
            "stream_index": 0,
            "key_frame": 0,
            "pkt_pts": 67,
            "pkt_pts_time": "4.187500",
            "pkt_dts": 67,
            "pkt_dts_time": "4.187500",
            "best_effort_timestamp": 67,
            "best_effort_timestamp_time": "4.187500",
            "pkt_duration": 1,
            "pkt_duration_time": "0.062500",
            "pkt_pos": "333086",
            "pkt_size": "4816",
            "width": 352,
            "height": 288,
            "pix_fmt": "yuv420p",
            "pict_type": "P",
            "coded_picture_number": 67,
            "display_picture_number": 0,
            "interlaced_frame": 0,
            "top_field_first": 0,
            "repeat_pict": 0
        },
        {
            "media_type": "video",
            "stream_index": 0,
            "key_frame": 0,
            "pkt_pts": 68,
            "pkt_pts_time": "4.250000",
            "pkt_dts": 68,
            "pkt_dts_time": "4.250000",
            "best_effort_timestamp": 68,
            "best_effort_timestamp_time": "4.250000",
            "pkt_duration": 1,
            "pkt_duration_time": "0.062500",
            "pkt_pos": "337910",
            "pkt_size": "5105",
            "width": 352,
            "height": 288,
            "pix_fmt": "yuv420p",
            "pict_type": "P",
            "coded_picture_number": 68,
            "display_picture_number": 0,
            "interlaced_frame": 0,
            "top_field_first": 0,
            "repeat_pict": 0
        },
        {
            "media_type": "video",
            "stream_index": 0,
            "key_frame": 0,
            "pkt_pts": 69,
            "pkt_pts_time": "4.312500",
            "pkt_dts": 69,
            "pkt_dts_time": "4.312500",
            "best_effort_timestamp": 69,
            "best_effort_timestamp_time": "4.312500",
            "pkt_duration": 1,
            "pkt_duration_time": "0.062500",
            "pkt_pos": "343024",
            "pkt_size": "4723",
            "width": 352,
            "height": 288,
            "pix_fmt": "yuv420p",
            "pict_type": "P",
            "coded_picture_number": 69,
            "display_picture_number": 0,
            "interlaced_frame": 0,
            "top_field_first": 0,
            "repeat_pict": 0
        },
        {
            "media_type": "video",
            "stream_index": 0,
            "key_frame": 0,
            "pkt_pts": 70,
            "pkt_pts_time": "4.375000",
            "pkt_dts": 70,
            "pkt_dts_time": "4.375000",
            "best_effort_timestamp": 70,
            "best_effort_timestamp_time": "4.375000",
            "pkt_duration": 1,
            "pkt_duration_time": "0.062500",
            "pkt_pos": "347756",
            "pkt_size": "4624",
            "width": 352,
            "height": 288,
            "pix_fmt": "yuv420p",
            "pict_type": "P",
            "coded_picture_number": 70,
            "display_picture_number": 0,
            "interlaced_frame": 0,
            "top_field_first": 0,
            "repeat_pict": 0
        },
        {
            "media_type": "video",
            "stream_index": 0,
            "key_frame": 0,
            "pkt_pts": 71,
            "pkt_pts_time": "4.437500",
            "pkt_dts": 71,
            "pkt_dts_time": "4.437500",
            "best_effort_timestamp": 71,
            "best_effort_timestamp_time": "4.437500",
            "pkt_duration": 1,
            "pkt_duration_time": "0.062500",
            "pkt_pos": "352388",
            "pkt_size": "4557",
            "width": 352,
            "height": 288,
            "pix_fmt": "yuv420p",
            "pict_type": "P",
            "coded_picture_number": 71,
            "display_picture_number": 0,
            "interlaced_frame": 0,
            "top_field_first": 0,
            "repeat_pict": 0
        },
        {
            "media_type": "video",
            "stream_index": 0,
            "key_frame": 0,
            "pkt_pts": 72,
            "pkt_pts_time": "4.500000",
            "pkt_dts": 72,
            "pkt_dts_time": "4.500000",
            "best_effort_timestamp": 72,
            "best_effort_timestamp_time": "4.500000",
            "pkt_duration": 1,
            "pkt_duration_time": "0.062500",
            "pkt_pos": "356954",
            "pkt_size": "7599",
            "width": 352,
            "height": 288,
            "pix_fmt": "yuv420p",
            "pict_type": "P",
            "coded_picture_number": 72,
            "display_picture_number": 0,
            "interlaced_frame": 0,
            "top_field_first": 0,
            "repeat_pict": 0
        },
        {
            "media_type": "video",
            "stream_index": 0,
            "key_frame": 0,
            "pkt_pts": 73,
            "pkt_pts_time": "4.562500",
            "pkt_dts": 73,
            "pkt_dts_time": "4.562500",
            "best_effort_timestamp": 73,
            "best_effort_timestamp_time": "4.562500",
            "pkt_duration": 1,
            "pkt_duration_time": "0.062500",
            "pkt_pos": "364562",
            "pkt_size": "4898",
            "width": 352,
            "height": 288,
            "pix_fmt": "yuv420p",
            "pict_type": "P",
            "coded_picture_number": 73,
            "display_picture_number": 0,
            "interlaced_frame": 0,
            "top_field_first": 0,
            "repeat_pict": 0
        },
        {
            "media_type": "video",
            "stream_index": 0,
            "key_frame": 0,
            "pkt_pts": 74,
            "pkt_pts_time": "4.625000",
            "pkt_dts": 74,
            "pkt_dts_time": "4.625000",
            "best_effort_timestamp": 74,
            "best_effort_timestamp_time": "4.625000",
            "pkt_duration": 1,
            "pkt_duration_time": "0.062500",
            "pkt_pos": "369468",
            "pkt_size": "4817",
            "width": 352,
            "height": 288,
            "pix_fmt": "yuv420p",
            "pict_type": "P",
            "coded_picture_number": 74,
            "display_picture_number": 0,
            "interlaced_frame": 0,
            "top_field_first": 0,
            "repeat_pict": 0
        },
        {
            "media_type": "video",
            "stream_index": 0,
            "key_frame": 0,
            "pkt_pts": 75,
            "pkt_pts_time": "4.687500",
            "pkt_dts": 75,
            "pkt_dts_time": "4.687500",
            "best_effort_timestamp": 75,
            "best_effort_timestamp_time": "4.687500",
            "pkt_duration": 1,
            "pkt_duration_time": "0.062500",
            "pkt_pos": "374294",
            "pkt_size": "4445",
            "width": 352,
            "height": 288,
            "pix_fmt": "yuv420p",
            "pict_type": "P",
            "coded_picture_number": 75,
            "display_picture_number": 0,
            "interlaced_frame": 0,
            "top_field_first": 0,
            "repeat_pict": 0
        },
        {
            "media_type": "video",
            "stream_index": 0,
            "key_frame": 0,
            "pkt_pts": 76,
            "pkt_pts_time": "4.750000",
            "pkt_dts": 76,
            "pkt_dts_time": "4.750000",
            "best_effort_timestamp": 76,
            "best_effort_timestamp_time": "4.750000",
            "pkt_duration": 1,
            "pkt_duration_time": "0.062500",
            "pkt_pos": "378748",
            "pkt_size": "4343",
            "width": 352,
            "height": 288,
            "pix_fmt": "yuv420p",
            "pict_type": "P",
            "coded_picture_number": 76,
            "display_picture_number": 0,
            "interlaced_frame": 0,
            "top_field_first": 0,
            "repeat_pict": 0
        },
        {
            "media_type": "video",
            "stream_index": 0,
            "key_frame": 0,
            "pkt_pts": 77,
            "pkt_pts_time": "4.812500",
            "pkt_dts": 77,
            "pkt_dts_time": "4.812500",
            "best_effort_timestamp": 77,
            "best_effort_timestamp_time": "4.812500",
            "pkt_duration": 1,
            "pkt_duration_time": "0.062500",
            "pkt_pos": "383100",
            "pkt_size": "4056",
            "width": 352,
            "height": 288,
            "pix_fmt": "yuv420p",
            "pict_type": "P",
            "coded_picture_number": 77,
            "display_picture_number": 0,
            "interlaced_frame": 0,
            "top_field_first": 0,
            "repeat_pict": 0
        },
        {
            "media_type": "video",
            "stream_index": 0,
            "key_frame": 0,
            "pkt_pts": 78,
            "pkt_pts_time": "4.875000",
            "pkt_dts": 78,
            "pkt_dts_time": "4.875000",
            "best_effort_timestamp": 78,
            "best_effort_timestamp_time": "4.875000",
            "pkt_duration": 1,
            "pkt_duration_time": "0.062500",
            "pkt_pos": "387164",
            "pkt_size": "4329",
            "width": 352,
            "height": 288,
            "pix_fmt": "yuv420p",
            "pict_type": "P",
            "coded_picture_number": 78,
            "display_picture_number": 0,
            "interlaced_frame": 0,
            "top_field_first": 0,
            "repeat_pict": 0
        },
        {
            "media_type": "video",
            "stream_index": 0,
            "key_frame": 0,
            "pkt_pts": 79,
            "pkt_pts_time": "4.937500",
            "pkt_dts": 79,
            "pkt_dts_time": "4.937500",
            "best_effort_timestamp": 79,
            "best_effort_timestamp_time": "4.937500",
            "pkt_duration": 1,
            "pkt_duration_time": "0.062500",
            "pkt_pos": "391502",
            "pkt_size": "5509",
            "width": 352,
            "height": 288,
            "pix_fmt": "yuv420p",
            "pict_type": "P",
            "coded_picture_number": 79,
            "display_picture_number": 0,
            "interlaced_frame": 0,
            "top_field_first": 0,
            "repeat_pict": 0
        },
        {
            "media_type": "video",
            "stream_index": 0,
            "key_frame": 0,
            "pkt_pts": 80,
            "pkt_pts_time": "5.000000",
            "pkt_dts": 80,
            "pkt_dts_time": "5.000000",
            "best_effort_timestamp": 80,
            "best_effort_timestamp_time": "5.000000",
            "pkt_duration": 1,
            "pkt_duration_time": "0.062500",
            "pkt_pos": "397020",
            "pkt_size": "5415",
            "width": 352,
            "height": 288,
            "pix_fmt": "yuv420p",
            "pict_type": "P",
            "coded_picture_number": 80,
            "display_picture_number": 0,
            "interlaced_frame": 0,
            "top_field_first": 0,
            "repeat_pict": 0
        },
        {
            "media_type": "video",
            "stream_index": 0,
            "key_frame": 0,
            "pkt_pts": 81,
            "pkt_pts_time": "5.062500",
            "pkt_dts": 81,
            "pkt_dts_time": "5.062500",
            "best_effort_timestamp": 81,
            "best_effort_timestamp_time": "5.062500",
            "pkt_duration": 1,
            "pkt_duration_time": "0.062500",
            "pkt_pos": "402444",
            "pkt_size": "5941",
            "width": 352,
            "height": 288,
            "pix_fmt": "yuv420p",
            "pict_type": "P",
            "coded_picture_number": 81,
            "display_picture_number": 0,
            "interlaced_frame": 0,
            "top_field_first": 0,
            "repeat_pict": 0
        },
        {
            "media_type": "video",
            "stream_index": 0,
            "key_frame": 0,
            "pkt_pts": 82,
            "pkt_pts_time": "5.125000",
            "pkt_dts": 82,
            "pkt_dts_time": "5.125000",
            "best_effort_timestamp": 82,
            "best_effort_timestamp_time": "5.125000",
            "pkt_duration": 1,
            "pkt_duration_time": "0.062500",
            "pkt_pos": "408394",
            "pkt_size": "5820",
            "width": 352,
            "height": 288,
            "pix_fmt": "yuv420p",
            "pict_type": "P",
            "coded_picture_number": 82,
            "display_picture_number": 0,
            "interlaced_frame": 0,
            "top_field_first": 0,
            "repeat_pict": 0
        },
        {
            "media_type": "video",
            "stream_index": 0,
            "key_frame": 0,
            "pkt_pts": 83,
            "pkt_pts_time": "5.187500",
            "pkt_dts": 83,
            "pkt_dts_time": "5.187500",
            "best_effort_timestamp": 83,
            "best_effort_timestamp_time": "5.187500",
            "pkt_duration": 1,
            "pkt_duration_time": "0.062500",
            "pkt_pos": "414222",
            "pkt_size": "5112",
            "width": 352,
            "height": 288,
            "pix_fmt": "yuv420p",
            "pict_type": "P",
            "coded_picture_number": 83,
            "display_picture_number": 0,
            "interlaced_frame": 0,
            "top_field_first": 0,
            "repeat_pict": 0
        },
        {
            "media_type": "video",
            "stream_index": 0,
            "key_frame": 0,
            "pkt_pts": 84,
            "pkt_pts_time": "5.250000",
            "pkt_dts": 84,
            "pkt_dts_time": "5.250000",
            "best_effort_timestamp": 84,
            "best_effort_timestamp_time": "5.250000",
            "pkt_duration": 1,
            "pkt_duration_time": "0.062500",
            "pkt_pos": "419342",
            "pkt_size": "7152",
            "width": 352,
            "height": 288,
            "pix_fmt": "yuv420p",
            "pict_type": "P",
            "coded_picture_number": 84,
            "display_picture_number": 0,
            "interlaced_frame": 0,
            "top_field_first": 0,
            "repeat_pict": 0
        },
        {
            "media_type": "video",
            "stream_index": 0,
            "key_frame": 0,
            "pkt_pts": 85,
            "pkt_pts_time": "5.312500",
            "pkt_dts": 85,
            "pkt_dts_time": "5.312500",
            "best_effort_timestamp": 85,
            "best_effort_timestamp_time": "5.312500",
            "pkt_duration": 1,
            "pkt_duration_time": "0.062500",
            "pkt_pos": "426502",
            "pkt_size": "4921",
            "width": 352,
            "height": 288,
            "pix_fmt": "yuv420p",
            "pict_type": "P",
            "coded_picture_number": 85,
            "display_picture_number": 0,
            "interlaced_frame": 0,
            "top_field_first": 0,
            "repeat_pict": 0
        },
        {
            "media_type": "video",
            "stream_index": 0,
            "key_frame": 0,
            "pkt_pts": 86,
            "pkt_pts_time": "5.375000",
            "pkt_dts": 86,
            "pkt_dts_time": "5.375000",
            "best_effort_timestamp": 86,
            "best_effort_timestamp_time": "5.375000",
            "pkt_duration": 1,
            "pkt_duration_time": "0.062500",
            "pkt_pos": "431432",
            "pkt_size": "4741",
            "width": 352,
            "height": 288,
            "pix_fmt": "yuv420p",
            "pict_type": "P",
            "coded_picture_number": 86,
            "display_picture_number": 0,
            "interlaced_frame": 0,
            "top_field_first": 0,
            "repeat_pict": 0
        },
        {
            "media_type": "video",
            "stream_index": 0,
            "key_frame": 0,
            "pkt_pts": 87,
            "pkt_pts_time": "5.437500",
            "pkt_dts": 87,
            "pkt_dts_time": "5.437500",
            "best_effort_timestamp": 87,
            "best_effort_timestamp_time": "5.437500",
            "pkt_duration": 1,
            "pkt_duration_time": "0.062500",
            "pkt_pos": "436182",
            "pkt_size": "4207",
            "width": 352,
            "height": 288,
            "pix_fmt": "yuv420p",
            "pict_type": "P",
            "coded_picture_number": 87,
            "display_picture_number": 0,
            "interlaced_frame": 0,
            "top_field_first": 0,
            "repeat_pict": 0
        },
        {
            "media_type": "video",
            "stream_index": 0,
            "key_frame": 0,
            "pkt_pts": 88,
            "pkt_pts_time": "5.500000",
            "pkt_dts": 88,
            "pkt_dts_time": "5.500000",
            "best_effort_timestamp": 88,
            "best_effort_timestamp_time": "5.500000",
            "pkt_duration": 1,
            "pkt_duration_time": "0.062500",
            "pkt_pos": "440398",
            "pkt_size": "4309",
            "width": 352,
            "height": 288,
            "pix_fmt": "yuv420p",
            "pict_type": "P",
            "coded_picture_number": 88,
            "display_picture_number": 0,
            "interlaced_frame": 0,
            "top_field_first": 0,
            "repeat_pict": 0
        },
        {
            "media_type": "video",
            "stream_index": 0,
            "key_frame": 0,
            "pkt_pts": 89,
            "pkt_pts_time": "5.562500",
            "pkt_dts": 89,
            "pkt_dts_time": "5.562500",
            "best_effort_timestamp": 89,
            "best_effort_timestamp_time": "5.562500",
            "pkt_duration": 1,
            "pkt_duration_time": "0.062500",
            "pkt_pos": "444716",
            "pkt_size": "4320",
            "width": 352,
            "height": 288,
            "pix_fmt": "yuv420p",
            "pict_type": "P",
            "coded_picture_number": 89,
            "display_picture_number": 0,
            "interlaced_frame": 0,
            "top_field_first": 0,
            "repeat_pict": 0
        },
        {
            "media_type": "video",
            "stream_index": 0,
            "key_frame": 0,
            "pkt_pts": 90,
            "pkt_pts_time": "5.625000",
            "pkt_dts": 90,
            "pkt_dts_time": "5.625000",
            "best_effort_timestamp": 90,
            "best_effort_timestamp_time": "5.625000",
            "pkt_duration": 1,
            "pkt_duration_time": "0.062500",
            "pkt_pos": "449044",
            "pkt_size": "5198",
            "width": 352,
            "height": 288,
            "pix_fmt": "yuv420p",
            "pict_type": "P",
            "coded_picture_number": 90,
            "display_picture_number": 0,
            "interlaced_frame": 0,
            "top_field_first": 0,
            "repeat_pict": 0
        },
        {
            "media_type": "video",
            "stream_index": 0,
            "key_frame": 0,
            "pkt_pts": 91,
            "pkt_pts_time": "5.687500",
            "pkt_dts": 91,
            "pkt_dts_time": "5.687500",
            "best_effort_timestamp": 91,
            "best_effort_timestamp_time": "5.687500",
            "pkt_duration": 1,
            "pkt_duration_time": "0.062500",
            "pkt_pos": "454250",
            "pkt_size": "4840",
            "width": 352,
            "height": 288,
            "pix_fmt": "yuv420p",
            "pict_type": "P",
            "coded_picture_number": 91,
            "display_picture_number": 0,
            "interlaced_frame": 0,
            "top_field_first": 0,
            "repeat_pict": 0
        },
        {
            "media_type": "video",
            "stream_index": 0,
            "key_frame": 0,
            "pkt_pts": 92,
            "pkt_pts_time": "5.750000",
            "pkt_dts": 92,
            "pkt_dts_time": "5.750000",
            "best_effort_timestamp": 92,
            "best_effort_timestamp_time": "5.750000",
            "pkt_duration": 1,
            "pkt_duration_time": "0.062500",
            "pkt_pos": "459098",
            "pkt_size": "4528",
            "width": 352,
            "height": 288,
            "pix_fmt": "yuv420p",
            "pict_type": "P",
            "coded_picture_number": 92,
            "display_picture_number": 0,
            "interlaced_frame": 0,
            "top_field_first": 0,
            "repeat_pict": 0
        },
        {
            "media_type": "video",
            "stream_index": 0,
            "key_frame": 0,
            "pkt_pts": 93,
            "pkt_pts_time": "5.812500",
            "pkt_dts": 93,
            "pkt_dts_time": "5.812500",
            "best_effort_timestamp": 93,
            "best_effort_timestamp_time": "5.812500",
            "pkt_duration": 1,
            "pkt_duration_time": "0.062500",
            "pkt_pos": "463634",
            "pkt_size": "4520",
            "width": 352,
            "height": 288,
            "pix_fmt": "yuv420p",
            "pict_type": "P",
            "coded_picture_number": 93,
            "display_picture_number": 0,
            "interlaced_frame": 0,
            "top_field_first": 0,
            "repeat_pict": 0
        },
        {
            "media_type": "video",
            "stream_index": 0,
            "key_frame": 0,
            "pkt_pts": 94,
            "pkt_pts_time": "5.875000",
            "pkt_dts": 94,
            "pkt_dts_time": "5.875000",
            "best_effort_timestamp": 94,
            "best_effort_timestamp_time": "5.875000",
            "pkt_duration": 1,
            "pkt_duration_time": "0.062500",
            "pkt_pos": "468162",
            "pkt_size": "4431",
            "width": 352,
            "height": 288,
            "pix_fmt": "yuv420p",
            "pict_type": "P",
            "coded_picture_number": 94,
            "display_picture_number": 0,
            "interlaced_frame": 0,
            "top_field_first": 0,
            "repeat_pict": 0
        },
        {
            "media_type": "video",
            "stream_index": 0,
            "key_frame": 0,
            "pkt_pts": 95,
            "pkt_pts_time": "5.937500",
            "pkt_dts": 95,
            "pkt_dts_time": "5.937500",
            "best_effort_timestamp": 95,
            "best_effort_timestamp_time": "5.937500",
            "pkt_duration": 1,
            "pkt_duration_time": "0.062500",
            "pkt_pos": "472602",
            "pkt_size": "5736",
            "width": 352,
            "height": 288,
            "pix_fmt": "yuv420p",
            "pict_type": "P",
            "coded_picture_number": 95,
            "display_picture_number": 0,
            "interlaced_frame": 0,
            "top_field_first": 0,
            "repeat_pict": 0
        },
        {
            "media_type": "video",
            "stream_index": 0,
            "key_frame": 0,
            "pkt_pts": 96,
            "pkt_pts_time": "6.000000",
            "pkt_dts": 96,
            "pkt_dts_time": "6.000000",
            "best_effort_timestamp": 96,
            "best_effort_timestamp_time": "6.000000",
            "pkt_duration": 1,
            "pkt_duration_time": "0.062500",
            "pkt_pos": "478346",
            "pkt_size": "7409",
            "width": 352,
            "height": 288,
            "pix_fmt": "yuv420p",
            "pict_type": "P",
            "coded_picture_number": 96,
            "display_picture_number": 0,
            "interlaced_frame": 0,
            "top_field_first": 0,
            "repeat_pict": 0
        },
        {
            "media_type": "video",
            "stream_index": 0,
            "key_frame": 0,
            "pkt_pts": 97,
            "pkt_pts_time": "6.062500",
            "pkt_dts": 97,
            "pkt_dts_time": "6.062500",
            "best_effort_timestamp": 97,
            "best_effort_timestamp_time": "6.062500",
            "pkt_duration": 1,
            "pkt_duration_time": "0.062500",
            "pkt_pos": "485764",
            "pkt_size": "4842",
            "width": 352,
            "height": 288,
            "pix_fmt": "yuv420p",
            "pict_type": "P",
            "coded_picture_number": 97,
            "display_picture_number": 0,
            "interlaced_frame": 0,
            "top_field_first": 0,
            "repeat_pict": 0
        },
        {
            "media_type": "video",
            "stream_index": 0,
            "key_frame": 0,
            "pkt_pts": 98,
            "pkt_pts_time": "6.125000",
            "pkt_dts": 98,
            "pkt_dts_time": "6.125000",
            "best_effort_timestamp": 98,
            "best_effort_timestamp_time": "6.125000",
            "pkt_duration": 1,
            "pkt_duration_time": "0.062500",
            "pkt_pos": "490614",
            "pkt_size": "4888",
            "width": 352,
            "height": 288,
            "pix_fmt": "yuv420p",
            "pict_type": "P",
            "coded_picture_number": 98,
            "display_picture_number": 0,
            "interlaced_frame": 0,
            "top_field_first": 0,
            "repeat_pict": 0
        },
        {
            "media_type": "video",
            "stream_index": 0,
            "key_frame": 0,
            "pkt_pts": 99,
            "pkt_pts_time": "6.187500",
            "pkt_dts": 99,
            "pkt_dts_time": "6.187500",
            "best_effort_timestamp": 99,
            "best_effort_timestamp_time": "6.187500",
            "pkt_duration": 1,
            "pkt_duration_time": "0.062500",
            "pkt_pos": "495510",
            "pkt_size": "4655",
            "width": 352,
            "height": 288,
            "pix_fmt": "yuv420p",
            "pict_type": "P",
            "coded_picture_number": 99,
            "display_picture_number": 0,
            "interlaced_frame": 0,
            "top_field_first": 0,
            "repeat_pict": 0
        },
        {
            "media_type": "video",
            "stream_index": 0,
            "key_frame": 0,
            "pkt_pts": 100,
            "pkt_pts_time": "6.250000",
            "pkt_dts": 100,
            "pkt_dts_time": "6.250000",
            "best_effort_timestamp": 100,
            "best_effort_timestamp_time": "6.250000",
            "pkt_duration": 1,
            "pkt_duration_time": "0.062500",
            "pkt_pos": "500174",
            "pkt_size": "4627",
            "width": 352,
            "height": 288,
            "pix_fmt": "yuv420p",
            "pict_type": "P",
            "coded_picture_number": 100,
            "display_picture_number": 0,
            "interlaced_frame": 0,
            "top_field_first": 0,
            "repeat_pict": 0
        },
        {
            "media_type": "video",
            "stream_index": 0,
            "key_frame": 0,
            "pkt_pts": 101,
            "pkt_pts_time": "6.312500",
            "pkt_dts": 101,
            "pkt_dts_time": "6.312500",
            "best_effort_timestamp": 101,
            "best_effort_timestamp_time": "6.312500",
            "pkt_duration": 1,
            "pkt_duration_time": "0.062500",
            "pkt_pos": "504810",
            "pkt_size": "5367",
            "width": 352,
            "height": 288,
            "pix_fmt": "yuv420p",
            "pict_type": "P",
            "coded_picture_number": 101,
            "display_picture_number": 0,
            "interlaced_frame": 0,
            "top_field_first": 0,
            "repeat_pict": 0
        },
        {
            "media_type": "video",
            "stream_index": 0,
            "key_frame": 0,
            "pkt_pts": 102,
            "pkt_pts_time": "6.375000",
            "pkt_dts": 102,
            "pkt_dts_time": "6.375000",
            "best_effort_timestamp": 102,
            "best_effort_timestamp_time": "6.375000",
            "pkt_duration": 1,
            "pkt_duration_time": "0.062500",
            "pkt_pos": "510186",
            "pkt_size": "4763",
            "width": 352,
            "height": 288,
            "pix_fmt": "yuv420p",
            "pict_type": "P",
            "coded_picture_number": 102,
            "display_picture_number": 0,
            "interlaced_frame": 0,
            "top_field_first": 0,
            "repeat_pict": 0
        },
        {
            "media_type": "video",
            "stream_index": 0,
            "key_frame": 0,
            "pkt_pts": 103,
            "pkt_pts_time": "6.437500",
            "pkt_dts": 103,
            "pkt_dts_time": "6.437500",
            "best_effort_timestamp": 103,
            "best_effort_timestamp_time": "6.437500",
            "pkt_duration": 1,
            "pkt_duration_time": "0.062500",
            "pkt_pos": "514958",
            "pkt_size": "4924",
            "width": 352,
            "height": 288,
            "pix_fmt": "yuv420p",
            "pict_type": "P",
            "coded_picture_number": 103,
            "display_picture_number": 0,
            "interlaced_frame": 0,
            "top_field_first": 0,
            "repeat_pict": 0
        },
        {
            "media_type": "video",
            "stream_index": 0,
            "key_frame": 0,
            "pkt_pts": 104,
            "pkt_pts_time": "6.500000",
            "pkt_dts": 104,
            "pkt_dts_time": "6.500000",
            "best_effort_timestamp": 104,
            "best_effort_timestamp_time": "6.500000",
            "pkt_duration": 1,
            "pkt_duration_time": "0.062500",
            "pkt_pos": "519890",
            "pkt_size": "4757",
            "width": 352,
            "height": 288,
            "pix_fmt": "yuv420p",
            "pict_type": "P",
            "coded_picture_number": 104,
            "display_picture_number": 0,
            "interlaced_frame": 0,
            "top_field_first": 0,
            "repeat_pict": 0
        },
        {
            "media_type": "video",
            "stream_index": 0,
            "key_frame": 0,
            "pkt_pts": 105,
            "pkt_pts_time": "6.562500",
            "pkt_dts": 105,
            "pkt_dts_time": "6.562500",
            "best_effort_timestamp": 105,
            "best_effort_timestamp_time": "6.562500",
            "pkt_duration": 1,
            "pkt_duration_time": "0.062500",
            "pkt_pos": "524656",
            "pkt_size": "5588",
            "width": 352,
            "height": 288,
            "pix_fmt": "yuv420p",
            "pict_type": "P",
            "coded_picture_number": 105,
            "display_picture_number": 0,
            "interlaced_frame": 0,
            "top_field_first": 0,
            "repeat_pict": 0
        },
        {
            "media_type": "video",
            "stream_index": 0,
            "key_frame": 0,
            "pkt_pts": 106,
            "pkt_pts_time": "6.625000",
            "pkt_dts": 106,
            "pkt_dts_time": "6.625000",
            "best_effort_timestamp": 106,
            "best_effort_timestamp_time": "6.625000",
            "pkt_duration": 1,
            "pkt_duration_time": "0.062500",
            "pkt_pos": "530252",
            "pkt_size": "5927",
            "width": 352,
            "height": 288,
            "pix_fmt": "yuv420p",
            "pict_type": "P",
            "coded_picture_number": 106,
            "display_picture_number": 0,
            "interlaced_frame": 0,
            "top_field_first": 0,
            "repeat_pict": 0
        },
        {
            "media_type": "video",
            "stream_index": 0,
            "key_frame": 0,
            "pkt_pts": 107,
            "pkt_pts_time": "6.687500",
            "pkt_dts": 107,
            "pkt_dts_time": "6.687500",
            "best_effort_timestamp": 107,
            "best_effort_timestamp_time": "6.687500",
            "pkt_duration": 1,
            "pkt_duration_time": "0.062500",
            "pkt_pos": "536188",
            "pkt_size": "5318",
            "width": 352,
            "height": 288,
            "pix_fmt": "yuv420p",
            "pict_type": "P",
            "coded_picture_number": 107,
            "display_picture_number": 0,
            "interlaced_frame": 0,
            "top_field_first": 0,
            "repeat_pict": 0
        },
        {
            "media_type": "video",
            "stream_index": 0,
            "key_frame": 0,
            "pkt_pts": 108,
            "pkt_pts_time": "6.750000",
            "pkt_dts": 108,
            "pkt_dts_time": "6.750000",
            "best_effort_timestamp": 108,
            "best_effort_timestamp_time": "6.750000",
            "pkt_duration": 1,
            "pkt_duration_time": "0.062500",
            "pkt_pos": "541514",
            "pkt_size": "7334",
            "width": 352,
            "height": 288,
            "pix_fmt": "yuv420p",
            "pict_type": "P",
            "coded_picture_number": 108,
            "display_picture_number": 0,
            "interlaced_frame": 0,
            "top_field_first": 0,
            "repeat_pict": 0
        },
        {
            "media_type": "video",
            "stream_index": 0,
            "key_frame": 0,
            "pkt_pts": 109,
            "pkt_pts_time": "6.812500",
            "pkt_dts": 109,
            "pkt_dts_time": "6.812500",
            "best_effort_timestamp": 109,
            "best_effort_timestamp_time": "6.812500",
            "pkt_duration": 1,
            "pkt_duration_time": "0.062500",
            "pkt_pos": "548856",
            "pkt_size": "4110",
            "width": 352,
            "height": 288,
            "pix_fmt": "yuv420p",
            "pict_type": "P",
            "coded_picture_number": 109,
            "display_picture_number": 0,
            "interlaced_frame": 0,
            "top_field_first": 0,
            "repeat_pict": 0
        },
        {
            "media_type": "video",
            "stream_index": 0,
            "key_frame": 0,
            "pkt_pts": 110,
            "pkt_pts_time": "6.875000",
            "pkt_dts": 110,
            "pkt_dts_time": "6.875000",
            "best_effort_timestamp": 110,
            "best_effort_timestamp_time": "6.875000",
            "pkt_duration": 1,
            "pkt_duration_time": "0.062500",
            "pkt_pos": "552974",
            "pkt_size": "3616",
            "width": 352,
            "height": 288,
            "pix_fmt": "yuv420p",
            "pict_type": "P",
            "coded_picture_number": 110,
            "display_picture_number": 0,
            "interlaced_frame": 0,
            "top_field_first": 0,
            "repeat_pict": 0
        },
        {
            "media_type": "video",
            "stream_index": 0,
            "key_frame": 0,
            "pkt_pts": 111,
            "pkt_pts_time": "6.937500",
            "pkt_dts": 111,
            "pkt_dts_time": "6.937500",
            "best_effort_timestamp": 111,
            "best_effort_timestamp_time": "6.937500",
            "pkt_duration": 1,
            "pkt_duration_time": "0.062500",
            "pkt_pos": "556598",
            "pkt_size": "3430",
            "width": 352,
            "height": 288,
            "pix_fmt": "yuv420p",
            "pict_type": "P",
            "coded_picture_number": 111,
            "display_picture_number": 0,
            "interlaced_frame": 0,
            "top_field_first": 0,
            "repeat_pict": 0
        },
        {
            "media_type": "video",
            "stream_index": 0,
            "key_frame": 0,
            "pkt_pts": 112,
            "pkt_pts_time": "7.000000",
            "pkt_dts": 112,
            "pkt_dts_time": "7.000000",
            "best_effort_timestamp": 112,
            "best_effort_timestamp_time": "7.000000",
            "pkt_duration": 1,
            "pkt_duration_time": "0.062500",
            "pkt_pos": "560036",
            "pkt_size": "3580",
            "width": 352,
            "height": 288,
            "pix_fmt": "yuv420p",
            "pict_type": "P",
            "coded_picture_number": 112,
            "display_picture_number": 0,
            "interlaced_frame": 0,
            "top_field_first": 0,
            "repeat_pict": 0
        },
        {
            "media_type": "video",
            "stream_index": 0,
            "key_frame": 0,
            "pkt_pts": 113,
            "pkt_pts_time": "7.062500",
            "pkt_dts": 113,
            "pkt_dts_time": "7.062500",
            "best_effort_timestamp": 113,
            "best_effort_timestamp_time": "7.062500",
            "pkt_duration": 1,
            "pkt_duration_time": "0.062500",
            "pkt_pos": "563624",
            "pkt_size": "3852",
            "width": 352,
            "height": 288,
            "pix_fmt": "yuv420p",
            "pict_type": "P",
            "coded_picture_number": 113,
            "display_picture_number": 0,
            "interlaced_frame": 0,
            "top_field_first": 0,
            "repeat_pict": 0
        },
        {
            "media_type": "video",
            "stream_index": 0,
            "key_frame": 0,
            "pkt_pts": 114,
            "pkt_pts_time": "7.125000",
            "pkt_dts": 114,
            "pkt_dts_time": "7.125000",
            "best_effort_timestamp": 114,
            "best_effort_timestamp_time": "7.125000",
            "pkt_duration": 1,
            "pkt_duration_time": "0.062500",
            "pkt_pos": "567484",
            "pkt_size": "3611",
            "width": 352,
            "height": 288,
            "pix_fmt": "yuv420p",
            "pict_type": "P",
            "coded_picture_number": 114,
            "display_picture_number": 0,
            "interlaced_frame": 0,
            "top_field_first": 0,
            "repeat_pict": 0
        },
        {
            "media_type": "video",
            "stream_index": 0,
            "key_frame": 0,
            "pkt_pts": 115,
            "pkt_pts_time": "7.187500",
            "pkt_dts": 115,
            "pkt_dts_time": "7.187500",
            "best_effort_timestamp": 115,
            "best_effort_timestamp_time": "7.187500",
            "pkt_duration": 1,
            "pkt_duration_time": "0.062500",
            "pkt_pos": "571104",
            "pkt_size": "3897",
            "width": 352,
            "height": 288,
            "pix_fmt": "yuv420p",
            "pict_type": "P",
            "coded_picture_number": 115,
            "display_picture_number": 0,
            "interlaced_frame": 0,
            "top_field_first": 0,
            "repeat_pict": 0
        },
        {
            "media_type": "video",
            "stream_index": 0,
            "key_frame": 0,
            "pkt_pts": 116,
            "pkt_pts_time": "7.250000",
            "pkt_dts": 116,
            "pkt_dts_time": "7.250000",
            "best_effort_timestamp": 116,
            "best_effort_timestamp_time": "7.250000",
            "pkt_duration": 1,
            "pkt_duration_time": "0.062500",
            "pkt_pos": "575010",
            "pkt_size": "3781",
            "width": 352,
            "height": 288,
            "pix_fmt": "yuv420p",
            "pict_type": "P",
            "coded_picture_number": 116,
            "display_picture_number": 0,
            "interlaced_frame": 0,
            "top_field_first": 0,
            "repeat_pict": 0
        }
    ]
}
